<svg xmlns="http://www.w3.org/2000/svg" xmlns:xlink="http://www.w3.org/1999/xlink" version="1.1" id="Ebene_1" x="0px" y="0px" width="100px" height="100px" viewBox="0 0 100 100" enable-background="new 0 0 100 100" xml:space="preserve">
<path d="M86.671,13.57c0,0-0.947-13.722-36.67-13.722c-35.725,0-37.145,15.14-37.145,15.14L8.598,43.852v44.477h6.708v5.048  c0,3.659,2.965,6.624,6.624,6.624c3.659,0,6.624-2.965,6.624-6.624v-5.048h42.893v5.048c0,3.659,2.965,6.624,6.627,6.624  c3.656,0,6.621-2.965,6.621-6.624v-5.048h6.708V43.852L86.671,13.57z M32.22,6.234h35.559c2.025,0,3.667,1.641,3.667,3.667  c0,2.024-1.642,3.668-3.667,3.668H32.22c-2.025,0-3.667-1.644-3.667-3.668C28.554,7.875,30.195,6.234,32.22,6.234z M19.297,20.272  c0-1.481,1.199-2.683,2.681-2.683h56.043c1.481,0,2.684,1.202,2.684,2.683L83.389,45.9c0,1.481-1.202,2.683-2.684,2.683h-61.41  c-1.481,0-2.681-1.202-2.681-2.683L19.297,20.272z M21.93,74.833c-3.659,0-6.624-2.966-6.624-6.624c0-3.659,2.965-6.624,6.624-6.624  c3.659,0,6.624,2.965,6.624,6.624C28.554,71.867,25.588,74.833,21.93,74.833z M78.07,74.833c-3.659,0-6.624-2.966-6.624-6.624  c0-3.659,2.965-6.624,6.624-6.624s6.624,2.965,6.624,6.624C84.694,71.867,81.729,74.833,78.07,74.833z"/>
</svg>