<svg xmlns="http://www.w3.org/2000/svg" xmlns:xlink="http://www.w3.org/1999/xlink" version="1.1" id="Layer_1" x="0px" y="0px" width="77.2727272727px" height="100px" viewBox="0 0 612 792" enable-background="new 0 0 612 792" xml:space="preserve">
<g>
	<path fill="#000000" d="M145,708.405h36l12.852-25.702c-12.3-0.768-23.926-1.672-34.644-2.714L145,708.405z"/>
	<path fill="#000000" d="M433,708.405h36l-14.208-28.416c-10.718,1.042-22.344,1.946-34.644,2.714L433,708.405z"/>
</g>
<path fill="#000000" stroke="#231F20" stroke-miterlimit="10" d="M109,618.405h396v45c-72,18-324,18-396,0V618.405z"/>
<path fill="#000000" d="M480.4,162.2c-1.32-1.761-4.2-3.2-6.4-3.2H331.623l17.863-53.595H361c15.57,0,31.825,7.976,31.975,8.05  c1.293,0.646,2.666,0.952,4.019,0.952c3.301,0,6.479-1.823,8.057-4.977c2.223-4.446,0.421-9.853-4.024-12.075  c-0.813-0.406-20.13-9.95-40.025-9.95H252.999c-19.896,0.001-39.211,9.544-40.023,9.95c-4.441,2.221-6.239,7.614-4.025,12.059  c2.213,4.444,7.613,6.257,12.062,4.047c0.162-0.08,16.417-8.055,31.987-8.056h11.514L282.379,159H140  c-2.2,0-5.123,1.407-6.495,3.127c0,0-24.505,30.712-24.505,86.873c0,6.611,0,351,0,351h396c0,0,0-337.425,0-351  C505,195,480.4,162.2,480.4,162.2z M283.486,105.405h47.027L312.648,159h-11.297L283.486,105.405z M208,186h198  c9.941,0,18,8.059,18,18s-8.059,18-18,18H208c-9.941,0-18-8.059-18-18S198.059,186,208,186z M163,573.405c-9.941,0-18-8.059-18-18  s8.059-18,18-18s18,8.059,18,18S172.941,573.405,163,573.405z M451,573.405c-9.941,0-18-8.059-18-18s8.059-18,18-18s18,8.059,18,18  S460.941,573.405,451,573.405z M469,501H361c-36-18-72-18-108,0H145V267c0-9.941,8.059-18,18-18h288c9.941,0,18,8.059,18,18V501z"/>
</svg>